<svg width="61" height="20" viewBox="-1 -0.8 60 19.2" xmlns="http://www.w3.org/2000/svg"><g id="svgGroup" stroke-linecap="round" fill-rule="evenodd" stroke="#aaa" stroke-width="1px" fill="#aaa"><path d="M 43.334 14.2 L 41.534 14.2 L 41.534 4.2 L 43.2 4.2 L 43.2 5.817 Q 43.75 4.934 44.625 4.467 Q 45.5 4 46.517 4 Q 47.584 4 48.492 4.525 A 3.914 3.914 0 0 1 49.81 5.787 A 4.747 4.747 0 0 1 49.967 6.042 A 4.154 4.154 0 0 1 50.425 7.292 Q 50.53 7.814 50.533 8.412 A 7.035 7.035 0 0 1 50.534 8.45 L 50.534 14.2 L 48.734 14.2 L 48.734 8.7 A 3.307 3.307 0 0 0 48.025 6.609 A 2.306 2.306 0 0 0 46.355 5.715 A 3.333 3.333 0 0 0 46.034 5.7 A 2.674 2.674 0 0 0 44.24 6.386 A 3.456 3.456 0 0 0 44.159 6.459 A 2.444 2.444 0 0 0 43.451 7.666 Q 43.348 8.054 43.335 8.517 A 4.818 4.818 0 0 0 43.334 8.65 L 43.334 14.2 Z M 13 19.2 L 11.2 19.2 L 11.2 4.2 L 12.867 4.2 L 12.867 5.517 A 4.973 4.973 0 0 1 14.45 4.45 Q 15.35 4.067 16.384 4.067 A 4.694 4.694 0 0 1 18.892 4.759 A 5.201 5.201 0 0 1 20.692 6.617 Q 21.367 7.784 21.367 9.2 A 5.065 5.065 0 0 1 20.692 11.784 A 5.201 5.201 0 0 1 18.892 13.642 A 4.694 4.694 0 0 1 16.384 14.334 A 4.893 4.893 0 0 1 14.534 13.984 Q 13.667 13.634 13 13.017 L 13 19.2 Z M 9 5.4 L 8.45 7.667 A 3.568 3.568 0 0 0 7.42 6.432 A 4.31 4.31 0 0 0 7.192 6.267 A 3.337 3.337 0 0 0 5.288 5.7 A 4.337 4.337 0 0 0 5.284 5.7 A 3.352 3.352 0 0 0 3.525 6.175 Q 2.734 6.65 2.267 7.442 A 3.397 3.397 0 0 0 1.8 9.196 A 3.563 3.563 0 0 0 1.8 9.2 Q 1.8 10.15 2.267 10.95 A 3.548 3.548 0 0 0 3.525 12.225 Q 4.317 12.7 5.284 12.7 A 3.529 3.529 0 0 0 6.601 12.458 A 3.33 3.33 0 0 0 7.192 12.15 A 3.465 3.465 0 0 0 8.45 10.734 L 9 13 A 5.669 5.669 0 0 1 7.51 13.943 A 6.469 6.469 0 0 1 7.334 14.017 Q 6.384 14.4 5.3 14.4 A 5.292 5.292 0 0 1 3.211 13.99 A 5.098 5.098 0 0 1 2.634 13.7 A 5.367 5.367 0 0 1 0.717 11.817 A 4.954 4.954 0 0 1 0 9.2 A 4.954 4.954 0 0 1 0.717 6.584 A 5.367 5.367 0 0 1 2.634 4.7 A 5.176 5.176 0 0 1 5.209 4.001 A 6.094 6.094 0 0 1 5.3 4 A 5.419 5.419 0 0 1 7.154 4.315 A 5.167 5.167 0 0 1 7.334 4.384 A 5.841 5.841 0 0 1 8.717 5.167 A 5.378 5.378 0 0 1 9 5.4 Z M 31.667 5.517 L 31.667 4.2 L 33.334 4.2 L 33.334 14.2 L 31.667 14.2 L 31.667 12.884 A 5.004 5.004 0 0 1 30.092 13.942 A 4.851 4.851 0 0 1 28.15 14.334 A 4.707 4.707 0 0 1 25.65 13.642 A 5.178 5.178 0 0 1 23.842 11.784 Q 23.167 10.617 23.167 9.2 A 5.065 5.065 0 0 1 23.842 6.617 A 5.178 5.178 0 0 1 25.65 4.759 Q 26.784 4.067 28.15 4.067 A 4.942 4.942 0 0 1 30.092 4.45 A 4.76 4.76 0 0 1 31.667 5.517 Z M 56.5 14.2 L 54.7 14.2 L 54.7 5.7 L 52.434 5.7 L 52.434 4.2 L 54.75 4.2 L 54.75 0.867 L 56.45 0.867 L 56.45 4.2 L 58.934 4.2 L 58.934 5.7 L 56.5 5.7 L 56.5 14.2 Z M 38.334 14.2 L 36.534 14.2 L 36.534 4.2 L 38.334 4.2 L 38.334 14.2 Z M 16.15 12.7 Q 17.1 12.7 17.875 12.225 A 3.546 3.546 0 0 0 19.109 10.959 A 3.433 3.433 0 0 0 19.566 9.26 A 4.043 4.043 0 0 0 19.567 9.2 A 3.514 3.514 0 0 0 19.304 7.836 A 3.374 3.374 0 0 0 19.109 7.442 A 3.546 3.546 0 0 0 17.875 6.175 Q 17.1 5.7 16.15 5.7 Q 15.2 5.7 14.425 6.175 A 3.546 3.546 0 0 0 13.192 7.442 A 3.433 3.433 0 0 0 12.734 9.14 A 4.043 4.043 0 0 0 12.734 9.2 A 3.514 3.514 0 0 0 12.997 10.565 A 3.374 3.374 0 0 0 13.192 10.959 A 3.546 3.546 0 0 0 14.425 12.225 Q 15.2 12.7 16.15 12.7 Z M 28.384 12.7 Q 29.334 12.7 30.109 12.225 A 3.546 3.546 0 0 0 31.342 10.959 A 3.433 3.433 0 0 0 31.8 9.26 A 4.043 4.043 0 0 0 31.8 9.2 A 3.514 3.514 0 0 0 31.537 7.836 A 3.374 3.374 0 0 0 31.342 7.442 A 3.546 3.546 0 0 0 30.109 6.175 Q 29.334 5.7 28.384 5.7 Q 27.434 5.7 26.659 6.175 A 3.546 3.546 0 0 0 25.425 7.442 A 3.433 3.433 0 0 0 24.967 9.14 A 4.043 4.043 0 0 0 24.967 9.2 A 3.514 3.514 0 0 0 25.23 10.565 A 3.374 3.374 0 0 0 25.425 10.959 A 3.546 3.546 0 0 0 26.659 12.225 Q 27.434 12.7 28.384 12.7 Z M 36.595 2.061 A 1.156 1.156 0 0 0 37.434 2.4 A 1.501 1.501 0 0 0 37.466 2.4 A 1.144 1.144 0 0 0 38.292 2.05 A 1.202 1.202 0 0 0 38.519 1.728 A 1.209 1.209 0 0 0 38.634 1.2 Q 38.634 0.684 38.292 0.342 A 1.132 1.132 0 0 0 37.878 0.075 A 1.281 1.281 0 0 0 37.434 0 Q 36.934 0 36.584 0.342 A 1.13 1.13 0 0 0 36.313 0.748 A 1.25 1.25 0 0 0 36.234 1.2 A 1.423 1.423 0 0 0 36.234 1.216 A 1.156 1.156 0 0 0 36.584 2.05 A 1.378 1.378 0 0 0 36.595 2.061 Z" vector-effect="non-scaling-stroke"/></g></svg>